<svg xmlns="http://www.w3.org/2000/svg" viewBox="0 0 183.52 68.92"><defs><style>.cls-1{fill:none;}</style></defs><title>spoots_logo_finalFichier 2</title><g id="Calque_2" data-name="Calque 2"><g id="Calque_1-2" data-name="Calque 1"><g id="Calque_2-2" data-name="Calque 2"><g id="Calque_1-2-2" data-name="Calque 1-2"><path d="M181.57,6.9a6.89,6.89,0,0,0-13.33-2.47h0c-2.72,6-2.8,14.58-2.8,14.58s8.33-2.34,13.33-6.53h0A6.89,6.89,0,0,0,181.57,6.9Z"/><path d="M15.63,46.78A18.15,18.15,0,0,1,5.57,44.21,13.53,13.53,0,0,1,0,37.27l8.36-4.86a7.58,7.58,0,0,0,7.54,5.08c3,0,4.49-.85,4.48-2.54,0-1.12-.86-2-2.58-2.71-.73-.3-2.32-.81-4.79-1.52A21,21,0,0,1,4.7,26.43a9.81,9.81,0,0,1-3.06-7.68,10.78,10.78,0,0,1,3.8-8.58,14,14,0,0,1,9.48-3.28,16.26,16.26,0,0,1,8.53,2.24,14.46,14.46,0,0,1,5.68,6.5l-8.2,4.81q-1.8-4.26-6-4.26a4.28,4.28,0,0,0-2.65.71,2.24,2.24,0,0,0-.9,1.82,2.57,2.57,0,0,0,1.34,2.14,22.71,22.71,0,0,0,5.21,2l4.45,1.61a17.1,17.1,0,0,1,3.75,2,8.3,8.3,0,0,1,3,3.43,11.46,11.46,0,0,1,1,4.93,10.6,10.6,0,0,1-4,8.8Q22.19,46.79,15.63,46.78Z"/><path d="M50,18.15a11.54,11.54,0,0,1,9,4.15,15.12,15.12,0,0,1,3.62,10.34A15.11,15.11,0,0,1,59,43a11.48,11.48,0,0,1-9,4.15,9.42,9.42,0,0,1-7.63-3.29l-.15,25.09H33.33l.09-50h8.91v2.52A9.42,9.42,0,0,1,50,18.15ZM44.27,36.62a6.06,6.06,0,0,0,8.3,0,5.94,5.94,0,0,0,1.59-4.32A6,6,0,0,0,52.57,28a6.06,6.06,0,0,0-8.3,0,6,6,0,0,0-1.59,4.32A5.9,5.9,0,0,0,44.27,36.62Z"/><path class="cls-1" d="M80.27,26.62a5.28,5.28,0,0,0-3.91,1.58,5.64,5.64,0,0,0-1.53,4.1,5.63,5.63,0,0,0,1.56,4.1A5.22,5.22,0,0,0,80.33,38v0a5.3,5.3,0,0,0,4-1.58,5.57,5.57,0,0,0,1.5-4.1,5.59,5.59,0,0,0-1.56-4.1A5.33,5.33,0,0,0,80.27,26.62Z"/><path class="cls-1" d="M102.33,26.62a5.26,5.26,0,0,0-3.9,1.58,5.67,5.67,0,0,0-1.56,4.1,5.63,5.63,0,0,0,1.56,4.1,5.22,5.22,0,0,0,3.9,1.6v0a5.3,5.3,0,0,0,4-1.58,5.62,5.62,0,0,0,1.55-4.1,5.62,5.62,0,0,0-1.55-4.1A5.33,5.33,0,0,0,102.33,26.62Z"/><path d="M112.69,22.05a14.9,14.9,0,0,0-20.69,0c-.2.19-.38.4-.57.61-.19-.21-.37-.42-.57-.61a14.9,14.9,0,0,0-20.69,0A13.84,13.84,0,0,0,65.91,32.3a13.84,13.84,0,0,0,4.26,10.25,14.89,14.89,0,0,0,20.69,0c.2-.19.38-.4.57-.61.19.21.37.42.57.61a14.89,14.89,0,0,0,20.69,0,13.87,13.87,0,0,0,4.24-10.25A13.87,13.87,0,0,0,112.69,22.05ZM84.33,36.4a5.3,5.3,0,0,1-4,1.58v0a5.22,5.22,0,0,1-3.94-1.6,5.63,5.63,0,0,1-1.56-4.1,5.64,5.64,0,0,1,1.53-4.1,5.28,5.28,0,0,1,3.91-1.58,5.33,5.33,0,0,1,4,1.58,5.59,5.59,0,0,1,1.56,4.1A5.57,5.57,0,0,1,84.33,36.4Zm22,0a5.3,5.3,0,0,1-4,1.58v0a5.22,5.22,0,0,1-3.9-1.6,5.63,5.63,0,0,1-1.56-4.1,5.67,5.67,0,0,1,1.56-4.1,5.26,5.26,0,0,1,3.9-1.58,5.33,5.33,0,0,1,4,1.58,5.62,5.62,0,0,1,1.55,4.1A5.62,5.62,0,0,1,106.33,36.4Z"/><path d="M142.33,7.92v9h-10v29h-10v-29h-9v-9Z"/><path d="M150.27,61.62c-6.94.3-8.78.3-11.94.3h-88v-9s96.61-.59,100.22-.59c3,0,4.48-.85,4.48-2.55,0-1.12-.86-2-2.59-2.71-.72-.3-2.31-.81-4.79-1.52a21.22,21.22,0,0,1-8.31-4.29,9.83,9.83,0,0,1-3.06-7.68,10.84,10.84,0,0,1,3.8-8.58,14,14,0,0,1,9.48-3.28A16.16,16.16,0,0,1,158.09,24a14.38,14.38,0,0,1,5.72,6.5l-8.2,4.81q-1.8-4.26-6-4.26a4.1,4.1,0,0,0-2.65.72,2.19,2.19,0,0,0-.91,1.81,2.57,2.57,0,0,0,1.34,2.14,22.26,22.26,0,0,0,5.21,2l4.45,1.61a17.1,17.1,0,0,1,3.75,2,8,8,0,0,1,3,3.43,11.36,11.36,0,0,1,1,4.94,10.62,10.62,0,0,1-4,8.8C158.16,60.56,154.38,61.46,150.27,61.62Z"/><path d="M183.52,28.53a5,5,0,0,0-5-5,5,5,0,0,0-3.76,1.72l0,0c-3.37,3.39-5.6,9.26-5.6,9.26s6.26.51,10.77-1.09v0A5,5,0,0,0,183.52,28.53Z"/></g></g></g></g></svg>