<svg width="400" height="300" xmlns="http://www.w3.org/2000/svg" xmlns:xlink="http://www.w3.org/1999/xlink">
 <defs>
  <linearGradient y2="0.1705" x2="0.54428" y1="0.67168" x1="0.44154" id="linear-gradient">
   <stop stop-opacity="0" stop-color="#fff" offset="0"/>
   <stop stop-color="#e9a900" offset="0.98"/>
  </linearGradient>
  <linearGradient xlink:href="#linear-gradient" y2="162.06" x2="79.93" y1="185.4" x1="70.08" id="linear-gradient-2"/>
  <linearGradient xlink:href="#linear-gradient" y2="175.53" x2="195.53" y1="209.84" x1="181.05" id="linear-gradient-3"/>
  <linearGradient xlink:href="#linear-gradient" y2="233.11" x2="272.71" y1="256.66" x1="262.77" id="linear-gradient-4"/>
 </defs>
 <title>141-150</title>
 <g>
  <title>background</title>
  <rect fill="none" id="canvas_background" height="602" width="802" y="-1" x="-1"/>
 </g>
 <g>
  <title>Layer 1</title>
  <g id="svg_1">
   <path id="svg_2" fill="#f9e48a" d="m24.88,155.14l138.9,-80.78a6.57,6.57 0 0 1 6.57,0l207.72,118.88a6.57,6.57 0 0 1 0,11.39l-132.81,76.69a21.44,21.44 0 0 1 -21.44,0l-198.92,-114.81a6.57,6.57 0 0 1 -0.02,-11.37z"/>
   <path id="svg_3" fill="url(#linear-gradient)" opacity="0.63" d="m330.3,194.49c-1.93,1.77 -3,1.49 -6.13,4.33c-2.13,1.91 -9,5 -9,5s-14.57,-7.17 -21.17,-11.08c-11.71,-6.92 -9.49,-6 -17.52,-9.91l-21.48,13.38l57.35,33.19l38.52,-24.09c-4.32,-2.6 -12.05,-6.5 -20.57,-10.82z"/>
   <path id="svg_4" fill="url(#linear-gradient-2)" opacity="0.63" d="m103,165.78c-1.93,1.77 -3,1.49 -6.13,4.33c-2.13,1.91 -9,5 -9,5s-14.51,-7.18 -21.11,-11.11c-11.71,-6.92 -9.49,-6 -17.52,-9.91l-21.46,13.41l57.35,33.19l38.52,-24.09c-4.35,-2.6 -12.08,-6.5 -20.65,-10.82z"/>
   <ellipse id="svg_5" fill="url(#linear-gradient-3)" ry="23.61" rx="48.41" cy="194.49" cx="187.53"/>
   <path id="svg_6" fill="#292841" d="m246,113.34q-8.53,-18.51 -22.1,-26.34q-10.63,-6.14 -19.36,-2.82c-1.84,0.41 -14.27,7.14 -14.27,7.14l4.91,0q-6.2,8.23 -7.4,24.21a79.56,79.56 0 0 0 6.91,39.82q8.51,18.54 22.08,26.37a28.35,28.35 0 0 0 10.52,3.81l-2.41,4.75s11.24,-4.37 15.93,-8.3q10.47,-7.56 12.08,-28.86a79.38,79.38 0 0 0 -6.89,-39.78zm-27.89,50.83q-6.63,-3.83 -10.87,-14.4t-3.17,-24.84q1.07,-14.25 6.48,-19.27t12,-1.17q6.63,3.83 10.87,14.4t3.17,24.84q-1.04,14.27 -6.46,19.27t-12.04,1.17l0.02,0z"/>
   <path id="svg_7" opacity="0.61" fill="#606060" d="m246,113.34q-8.53,-18.51 -22.1,-26.34q-10.63,-6.14 -19.36,-2.82c-1.84,0.41 -14.27,7.14 -14.27,7.14l4.91,0q-6.2,8.23 -7.4,24.21a79.56,79.56 0 0 0 6.91,39.82q8.51,18.54 22.08,26.37a28.35,28.35 0 0 0 10.52,3.81l-2.41,4.75s11.24,-4.37 15.93,-8.3q10.47,-7.56 12.08,-28.86a79.38,79.38 0 0 0 -6.89,-39.78zm-27.89,50.83q-6.63,-3.83 -10.87,-14.4t-3.17,-24.84q1.07,-14.25 6.48,-19.27t12,-1.17q6.63,3.83 10.87,14.4t3.17,24.84q-1.04,14.27 -6.46,19.27t-12.04,1.17l0.02,0z"/>
   <path id="svg_8" fill="#292841" d="m235.25,118.87a79.39,79.39 0 0 1 6.92,39.79q-1.6,21.29 -12.08,28.86t-24,-0.26q-13.57,-7.83 -22.08,-26.37a79.56,79.56 0 0 1 -7.01,-39.82q1.6,-21.29 12.07,-28.82t24,0.29q13.66,7.82 22.18,26.33zm-15.85,49.66q5.4,-5 6.48,-19.27t-3.17,-24.84q-4.24,-10.57 -10.87,-14.4t-12,1.17q-5.42,5 -6.48,19.27t3.17,24.84q4.24,10.57 10.87,14.4t12,-1.17"/>
   <path id="svg_9" fill="#292841" d="m140,145.9l-8.69,-5l4.34,-57.78l-19,-11l-10.73,5.53l3.13,1.81l-29.69,28.7l-1.46,19.45l35.85,20.7l-1.22,16.21l5.55,3.2l0,11.73l10.74,-5.45l0.48,-6.33l9.43,-4.87l1.27,-16.9zm-25,-14.42l-20.6,-11.9l23.26,-23.13l-2.66,35.03z"/>
   <path id="svg_10" opacity="0.61" fill="#606060" d="m140,145.9l-8.69,-5l4.34,-57.78l-19,-11l-10.73,5.53l3.13,1.81l-29.69,28.7l-1.46,19.45l35.85,20.7l-1.22,16.21l5.55,3.2l0,11.73l10.74,-5.45l0.48,-6.33l9.43,-4.87l1.27,-16.9zm-25,-14.42l-20.6,-11.9l23.26,-23.13l-2.66,35.03z"/>
   <path id="svg_11" fill="#292841" d="m120.57,146.42l8.69,5l-1.26,16.87l-8.69,-5l-1.22,16.21l-16.28,-9.4l1.19,-16.23l-35.85,-20.7l1.46,-19.45l37.29,-36l19,11l-4.33,57.7zm-16.27,-9.42l2.63,-35l-23.26,23.11l20.63,11.89"/>
   <path id="svg_12" fill="#292841" d="m360.84,178.06l-8.69,-5l4.34,-57.78l-19,-11l-10.73,5.53l3.13,1.81l-29.69,28.7l-1.46,19.45l35.85,20.7l-1.22,16.21l5.55,3.2l0,11.73l10.73,-5.53l0.48,-6.33l9.43,-4.87l1.28,-16.82zm-25,-14.42l-20.63,-11.91l23.26,-23.13l-2.63,35.04z"/>
   <path id="svg_13" opacity="0.61" fill="#606060" d="m360.84,178.06l-8.69,-5l4.34,-57.78l-19,-11l-10.73,5.53l3.13,1.81l-29.69,28.7l-1.46,19.45l35.85,20.7l-1.22,16.21l5.55,3.2l0,11.73l10.73,-5.53l0.48,-6.33l9.43,-4.87l1.28,-16.82zm-25,-14.42l-20.63,-11.91l23.26,-23.13l-2.63,35.04z"/>
   <path id="svg_14" fill="#292841" d="m341.42,178.58l8.69,5l-1.27,16.85l-8.69,-5l-1.22,16.21l-16.28,-9.4l1.22,-16.24l-35.87,-20.66l1.46,-19.45l37.29,-36l19,11l-4.33,57.69zm-16.28,-9.4l2.63,-35l-23.26,23.13l20.63,11.91"/>
   <path id="svg_15" fill="#ff7b39" d="m307.34,161.73l6.36,22.92s-0.54,6.21 -8.64,3.63l-5.51,-24.18s1.24,-5.38 7.79,-2.37z"/>
   <path id="svg_16" fill="#3b125e" d="m297.77,150.94l4,13.58s3.44,1.76 4.51,-1.59l-3.28,-13.25l-5.23,1.26z"/>
   <path id="svg_17" fill="#3b125e" d="m291.53,147.78a30.17,30.17 0 0 1 -9.88,-28.83c1.28,-5.1 4.19,-8.67 8.2,-10l0,0c8,-2.75 17.47,4.27 21.49,16s0.86,23 -7.17,25.8a11.34,11.34 0 0 1 -6.4,0.25a16.43,16.43 0 0 1 -6.24,-3.22zm-0.18,-34.51c-2.48,0.85 -4.33,3.26 -5.22,6.8a25.6,25.6 0 0 0 8.25,24.08c2.87,2.25 5.81,3 8.29,2.17c5.4,-1.85 7.37,-11 4.3,-19.94c-2.38,-7 -7.23,-12.13 -11.8,-13.23a6.77,6.77 0 0 0 -3.82,0.12z"/>
   <path id="svg_18" fill="#3b125e" d="m296.33,115.26c-1.2,-0.88 -3.91,0.56 -4.77,1.37c-7.12,6.67 -3.7,19.14 2.47,25.5c2.31,2.38 7.76,5.64 9.77,4.28c0,0 -8.91,6 -15.27,-0.63s-7.91,-19.52 -7.91,-19.52l0.39,-6.79l2.33,-4.55l2.37,-2.53l5.85,-0.64l4.77,3.51z"/>
   <path id="svg_19" fill="#662d91" d="m289.36,148.41a30.17,30.17 0 0 1 -9.88,-28.83c1.28,-5.1 4.19,-8.67 8.2,-10l0,0c8,-2.75 17.47,4.27 21.49,16s0.86,23 -7.17,25.8a11.34,11.34 0 0 1 -6.4,0.25a16.43,16.43 0 0 1 -6.24,-3.22zm-0.18,-34.51c-2.48,0.85 -4.33,3.26 -5.22,6.8a25.6,25.6 0 0 0 8.25,24.08c2.87,2.25 5.81,3 8.29,2.17c5.4,-1.85 7.37,-11 4.3,-19.94c-2.38,-7 -7.23,-12.13 -11.8,-13.23a6.77,6.77 0 0 0 -3.82,0.12z"/>
   <path id="svg_20" fill="#fcbf81" d="m285.64,150a7,7 0 0 1 0.48,-0.94a0.1,0.1 0 0 0 0,0.05a0.12,0.12 0 0 0 0.23,0l0.35,-0.53a0.61,0.61 0 0 0 0,0.21a0.53,0.53 0 0 0 0.58,0.41a0.52,0.52 0 0 0 0.47,-0.66l0.16,-0.18a0.52,0.52 0 0 0 0,0.16a0.46,0.46 0 0 0 0.76,0.19l0.17,-0.17a0.38,0.38 0 0 0 0.31,0a11.82,11.82 0 0 0 1.32,-0.54a0.2,0.2 0 0 1 -0.07,-0.33a13.2,13.2 0 0 1 1.6,-1.11l0.07,0l0,-0.05a1.8,1.8 0 0 0 -0.09,-1.29a1.41,1.41 0 0 0 0.29,-1.19a0.22,0.22 0 0 1 -0.12,-0.05a1,1 0 0 1 -0.2,-0.24a1.37,1.37 0 0 1 -0.22,-0.41a0.19,0.19 0 0 1 0.07,-0.21c-0.21,-0.28 -0.45,-0.54 -0.67,-0.78a5.28,5.28 0 0 0 0.72,-3a0.45,0.45 0 0 0 -0.84,-0.22a9.56,9.56 0 0 0 -0.56,1a0.38,0.38 0 0 0 -0.13,0.14a56,56 0 0 1 -3,5.31c-0.18,0.29 -2.43,3.38 -2.17,3.46c0.07,0.16 -1.77,4.41 0.49,0.97zm1.33,-1.31s0,0 0,0a0.12,0.12 0 0 0 0.18,0l0,0a0.47,0.47 0 0 0 0.39,0.08a0.29,0.29 0 0 1 -0.59,0l0.02,-0.08z"/>
   <path id="svg_21" fill="#fcbf81" d="m285.88,149a4.91,4.91 0 0 0 1.21,-1.38a1,1 0 0 1 1.31,-0.37a5.53,5.53 0 0 0 0.05,-0.75a1,1 0 0 1 2,0a4.83,4.83 0 0 1 -0.77,2.84a8.13,8.13 0 0 1 -2.16,1.91a1,1 0 0 1 -1.51,-0.77l-0.09,-0.07a1,1 0 0 1 -0.04,-1.41z"/>
   <path id="svg_22" fill="#34323d" d="m289.07,149.75a4,4 0 0 0 1.68,-2.35a0.11,0.11 0 0 0 0.16,0l0.79,-0.53a1.85,1.85 0 0 0 0.45,-0.36c0.29,-0.37 0,-0.79 -0.12,-1.17a0.12,0.12 0 0 0 0,-0.06l0.11,-0.19a1.7,1.7 0 0 0 0.3,-1c-0.05,-0.34 -0.38,-0.57 -0.53,-0.87a0.77,0.77 0 0 0 -0.46,-0.84c-0.42,-0.19 -0.66,0.13 -0.88,0.44q-0.73,1 -1.38,2c-0.08,0.14 0.13,0.26 0.22,0.12c0.24,-0.38 0.48,-0.75 0.73,-1.12a4.67,4.67 0 0 1 0.8,-1.12c0.88,-0.51 0.71,0.71 0.57,1s-0.19,0.36 -0.29,0.53l-0.67,1.18l0,0a0.11,0.11 0 0 0 0,0.1a3.49,3.49 0 0 1 -1.53,3.87c-0.22,0.25 -0.09,0.46 0.05,0.37zm1.8,-4a0.11,0.11 0 0 0 -0.13,0l0,-0.08a9.43,9.43 0 0 0 1.08,-2l0.19,0.24a0.75,0.75 0 0 1 0,0.83c-0.15,0.34 -0.6,1.26 -1.15,0.97l0.01,0.04zm-0.08,1.51a3.47,3.47 0 0 0 0,-1.27c0.43,0.21 0.79,-0.07 1,-0.41a2.74,2.74 0 0 1 0.17,0.49a0.52,0.52 0 0 1 -0.27,0.55c-0.26,0.18 -0.59,0.38 -0.91,0.6l0.01,0.04z"/>
   <path id="svg_23" fill="#e55600" d="m274.89,153.75s5.79,0.28 7.3,-1.11s3.68,-5.75 3.68,-5.75s4,2.56 4.19,4s-4.17,8.61 -6.11,9.09"/>
   <path id="svg_41" fill="url(#linear-gradient-4)" opacity="0.63" d="m249.27667,241.6a8.53,8.53 0 0 0 0.51,8.38a13.53,13.53 0 0 0 7.65,6l31,-19.37c-0.65,0.41 -8.78,-4.78 -9.75,-5.28c-2.7,-1.4 -8.8,-6.12 -11.84,-5.45c-5,1.1 -10.37,7.12 -13.86,10.61a17.46,17.46 0 0 0 -3.71,5.11z"/>
   <path id="svg_24" fill="#e55600" d="m266.11,225.13s4.89,-2.18 6.07,-2.26s3.15,0.32 1.43,2.48c0,0 -5.15,3.37 -5.83,3.47s-2.33,-0.41 -2.37,-0.23s-0.2,1.48 -0.2,1.48s-4.3,1.64 -4.49,-1.24c0,-0.38 0.62,-5.72 0.62,-5.72"/>
   <path id="svg_25" fill="#34323d" d="m260.49,212.52c0.85,-5.53 2.41,-10.89 3.06,-16.49c0.41,-3.52 0.7,-7.06 1.13,-10.58s1.75,-6.93 2.59,-10.41a0.38,0.38 0 0 0 -0.17,-0.43l0.12,-0.37c0.43,-0.41 0.88,-0.81 1.31,-1.18l6,4.05s0,3.68 -0.22,9c-0.7,3.11 -1.23,5.89 -2,8.84a0.77,0.77 0 0 1 0.19,0.7a249.87,249.87 0 0 0 -4.27,28.14a0.81,0.81 0 0 1 -0.54,0.7l-0.17,1.46c-5.23,2 -6.38,-1.5 -6.38,-1.5s-0.24,-3 -0.53,-7.16c-0.13,-1.57 -0.15,-3.17 -0.12,-4.77z"/>
   <path id="svg_26" fill="#fcbf81" d="m304.78,156.09c-0.31,0.18 -0.65,0.39 -1,0.66a13.9,13.9 0 0 0 1.36,-2.11c0.39,-0.65 -0.58,-1.18 -1,-0.7a40.84,40.84 0 0 1 -4.3,4a0.66,0.66 0 0 0 -0.17,0.2l-0.94,0l-0.8,0l-0.22,0a0.57,0.57 0 0 0 -0.53,0.16a1.82,1.82 0 0 0 -0.35,0.16l-0.1,0.08l-0.92,0.1a0.67,0.67 0 0 0 -0.5,1l-0.13,-0.07c-0.7,-0.43 -1.25,0.72 -0.56,1.14a9.29,9.29 0 0 0 4.87,1.37a0.55,0.55 0 0 0 0.55,0.07l0.29,-0.11a14.08,14.08 0 0 0 4.27,-0.89a3.86,3.86 0 0 1 1.14,-0.26l0,0c-0.34,-1.6 -0.66,-3.2 -0.96,-4.8z"/>
   <path id="svg_27" fill="#e55600" d="m276.81,233.18l2.91,1a1.6,1.6 0 0 0 1.17,1.07a0.65,0.65 0 0 0 0.41,0.23a7.62,7.62 0 0 0 3.46,-0.56c1.39,-0.44 6.83,-2.52 5.32,1.39c-1,0.7 -2.1,1.3 -3.12,1.92c-0.57,0.35 -1.14,0.69 -1.73,1a3.43,3.43 0 0 1 -1,0.47c-0.78,0.12 -2.68,-0.47 -2.73,-0.27s-0.22,1.7 -0.22,1.7s-4.95,1.89 -5.16,-1.42c-0.05,-0.39 0.69,-6.53 0.69,-6.53z"/>
   <path id="svg_28" fill="#34323d" d="m272.73,203.43c-0.61,-9.78 -0.94,-19.62 -3,-29.23c-0.09,-2.5 -1.71,-0.9 -1.6,-1.89c0.88,-8 12.6,1.53 12.6,1.53c0.47,0.39 0.53,2.85 0.63,3.41q0.79,4.63 1.36,9.3c1.94,15.71 1.22,31.33 0.43,47.09c-2.49,2.54 -4.12,3.3 -8.13,1.66c-0.8,-10.31 -1.56,-20.63 -2.22,-30.95l-0.07,-0.92z"/>
   <path id="svg_29" fill="#e55600" d="m279,154.82c-0.11,-0.51 -1.43,-0.85 -1.82,-1.06c-0.91,-0.49 -0.38,-1.35 -1.27,-1.88a30.51,30.51 0 0 0 -4,-2l0,0c-2.22,0 -5.95,-0.12 -6.17,2.85a88.81,88.81 0 0 0 0.41,13.69c0.14,1.83 0.3,3.65 0.46,5.43c0.06,0.65 0.14,5.93 0.53,6.09c4.41,1.83 10.05,1.18 14.38,-0.53a146.75,146.75 0 0 0 -2.52,-22.59z"/>
   <path id="svg_30" fill="#34323d" d="m275,159.44a7.46,7.46 0 0 0 5.48,6.55c0,0.3 0.09,2.16 0.12,2.46c-3.52,-0.85 -6.12,-5.27 -6.49,-9c-0.02,-0.58 0.89,-0.58 0.89,-0.01z"/>
   <path id="svg_31" fill="#fcbf81" d="m272.88,140.66c0.29,0.08 2.76,5.74 1.79,9.19s-6.82,-0.1 -8.29,-2.72s0.96,-7.9 6.5,-6.47z"/>
   <path id="svg_32" fill="#34323d" d="m272.8,141.45a2.72,2.72 0 0 1 -1.64,2.48c-1.64,0.6 -3,1 -2.91,1.77s3,-0.11 3,1.63a12.92,12.92 0 0 1 -0.47,3.46c-0.18,0.85 -5.09,-1.75 -6.71,-6.2s2.44,-5.62 2.63,-5.65a4.12,4.12 0 0 1 2.55,-1.67c2,-0.43 2.55,0.34 2.55,0.34a2.41,2.41 0 0 1 2.9,0.31a3.07,3.07 0 0 1 -0.71,5.19l-1.19,-1.66z"/>
   <path id="svg_33" fill="#e55600" d="m275,151.38s10.11,5.8 13.76,5.8a80.07,80.07 0 0 0 10.52,-1.33c2.51,2.13 2.67,5.84 1.12,8.69c-4.42,0.72 -17.5,2.6 -21.61,0.57c-5,-2.46 -10.43,-5.76 -10.43,-5.76s-4.91,-4.85 6.64,-7.97z"/>
   <path id="svg_34" fill="#fcbf81" d="m303.75,156.74s1.52,-1.25 1.9,-1a6.06,6.06 0 0 1 1.19,3.62c-0.13,1.25 -0.77,2.31 -3.88,2.28"/>
   <rect id="svg_35" fill="#bc532a" ry="2.01" rx="2.01" height="40.4" width="6.09" y="180.22" x="163.8"/>
   <path id="svg_36" fill="#2c9135" d="m181.9,188.49c-1.41,-6.1 -7.65,-33 -18.71,-25.06c-5.67,4 -7.27,10.37 -9.54,16.55c-1.88,5.12 -3.44,10.51 -3.52,16c-0.18,11.18 11.19,12.54 19.89,12.5c5,0 12.17,-3 13.34,-8.43c0.71,-3.28 -0.5,-7.16 -1.2,-10.38q-0.16,-0.59 -0.26,-1.18z"/>
   <path id="svg_37" fill="#156819" d="m182.43,189.67q-0.13,-0.59 -0.27,-1.19c-1.24,-5.39 -6.27,-27 -15.07,-26.49c2.61,11.4 6.46,23.45 4.41,35.12a26.69,26.69 0 0 1 -4.65,11.3c1.17,0.06 2.32,0.08 3.43,0.07c5,0 12.17,-3 13.34,-8.43c0.71,-3.28 -0.49,-7.16 -1.19,-10.38z"/>
   <rect id="svg_38" fill="#bc532a" ry="1.74" rx="1.74" height="34.42" width="5.19" y="75.4" x="161.79"/>
   <path id="svg_39" fill="#2c9135" d="m177.21,82.44c-1.2,-5.19 -6.51,-28.08 -15.94,-21.35c-4.83,3.45 -6.19,8.83 -8.12,14.1a42,42 0 0 0 -3,13.63c-0.15,9.52 9.53,10.69 16.95,10.65c4.27,0 10.37,-2.54 11.37,-7.18c0.6,-2.8 -0.42,-6.1 -1,-8.84l-0.26,-1.01z"/>
   <path id="svg_40" fill="#156819" d="m177.66,83.45l-0.23,-1c-1.06,-4.59 -5.34,-23 -12.83,-22.57c2.23,9.71 5.51,20 3.76,29.92a22.73,22.73 0 0 1 -4,9.62c1,0 2,0.06 2.92,0.06c4.27,0 10.37,-2.54 11.37,-7.18c0.63,-2.81 -0.39,-6.11 -0.99,-8.85z"/>
  </g>
 </g>
</svg>