<svg width="512" height="512" xmlns="http://www.w3.org/2000/svg">
 <g>
  <title>background</title>
  <rect fill="none" id="canvas_background" height="514" width="514" y="-1" x="-1"/>
 </g>

 <g>
  <title>Layer 1</title>
  <path fill="#292841" stroke="null" id="svg_2" d="m256,6.5c-117.56804,0 -213.21923,91.81505 -213.21923,204.66797c0,90.98893 62.46261,170.76223 152.74763,196.31527l46.84794,89.93436c2.57798,4.95299 7.85295,8.08241 13.62366,8.08241c5.76676,0 11.04171,-3.12941 13.61969,-8.08241l46.84795,-89.93436c90.28898,-25.54924 152.75159,-105.32634 152.75159,-196.31527c0,-112.85291 -95.65119,-204.66797 -213.21923,-204.66797zm-40.28003,296.76856c-8.38837,0 -15.22995,-6.56719 -15.22995,-14.61914s6.84158,-14.61914 15.22995,-14.61914s15.22995,6.56719 15.22995,14.61914s-6.84159,14.61914 -15.22995,14.61914zm76.14973,0c-8.38837,0 -15.22995,-6.56719 -15.22995,-14.61914s6.84158,-14.61914 15.22995,-14.61914s15.22995,6.56719 15.22995,14.61914s-6.84159,14.61914 -15.22995,14.61914zm59.53559,-132.30322l-39.56613,82.8418c-2.47883,5.19665 -7.88863,8.52783 -13.8418,8.52783l-87.61184,0c-7.14697,0 -13.33413,-4.77025 -14.873,-11.47069l-24.23307,-105.48243l-8.97138,0c-8.41217,0 -15.22995,-6.54435 -15.22995,-14.61914s6.81778,-14.61914 15.22995,-14.61914l21.2069,0c7.15094,0 13.33414,4.77025 14.873,11.47069l5.20356,22.64063l133.968,0c5.1877,0 10.01844,2.5355 12.81854,6.72328c2.80405,4.19158 3.18876,9.46056 1.02722,13.98716l0,0.00001zm0,0"/>
  <rect id="svg_3" height="241" width="259" y="91" x="123.5" stroke-opacity="null" stroke-width="null" stroke="null" fill="#292841"/>
  <g id="svg_1" stroke="null">
   <path d="m256,83.9116c-68.47708,0 -123.97848,55.50679 -123.97848,123.97848s55.5014,123.97848 123.97848,123.97848s123.97848,-55.51219 123.97848,-123.97848s-55.50679,-123.97848 -123.97848,-123.97848zm7.50485,179.20471l0,14.35148c0,2.23905 -1.74268,3.86843 -3.98712,3.86843l-9.56586,0c-2.24444,0 -4.05187,-1.62938 -4.05187,-3.86843l0,-13.08898c-8.80512,-0.39925 -17.68578,-2.27681 -24.40831,-4.83418c-3.64182,-1.3812 -5.67045,-5.28199 -4.7047,-9.0587l1.55924,-6.0751c0.54492,-2.13114 1.96928,-3.91159 3.91698,-4.90972c1.9477,-1.01432 4.23531,-1.11683 6.28012,-0.33451c6.40421,2.47644 13.96842,4.27847 22.04517,4.27847c10.28343,0 17.32429,-3.97094 17.32429,-11.18984c0,-6.85742 -5.77297,-11.18984 -19.13172,-15.7057c-19.30976,-6.49593 -32.53363,-15.51687 -32.53363,-33.0246c0,-15.87835 11.2384,-28.33069 30.45104,-32.12358l0,-13.08898c0,-2.23905 1.91533,-4.2461 4.15977,-4.2461l9.56586,0c2.24444,0 3.89001,2.00705 3.89001,4.2461l0,11.82109c8.40047,0.36148 14.46479,1.6078 19.53636,3.25876c3.83605,1.25171 6.10208,5.2712 5.09316,9.18819l-1.3704,5.43846c-0.53413,2.07179 -1.90454,3.83066 -3.7821,4.84497s-4.09503,1.19776 -6.12366,0.50176c-4.60758,-1.58082 -10.61794,-3.01597 -18.2361,-3.01597c-11.72937,0 -15.52226,5.05539 -15.52226,10.11078c0,5.95641 6.31789,9.7439 21.65671,15.52226c21.47327,7.58039 30.10035,17.50773 30.10035,33.74217c-0.0054,16.06179 -11.3517,29.78742 -32.16135,33.39148l0.00002,-0.00001z" id="svg_1" fill="#ffffff" stroke="null"/>
  </g>
 </g>
</svg>