<svg width="512" height="512" xmlns="http://www.w3.org/2000/svg">
 <g>
  <title>background</title>
  <rect fill="none" id="canvas_background" height="514" width="514" y="-1" x="-1"/>
 </g>

 <g>
  <title>Layer 1</title>
  <path fill="#292841" id="svg_2" d="m256,6.5c-117.56804,0 -213.21923,91.81505 -213.21923,204.66797c0,90.98893 62.46261,170.76223 152.74763,196.31527l46.84794,89.93436c2.57798,4.95299 7.85295,8.08241 13.62366,8.08241c5.76676,0 11.04171,-3.12941 13.61969,-8.08241l46.84795,-89.93436c90.28898,-25.54924 152.75159,-105.32634 152.75159,-196.31527c0,-112.85291 -95.65119,-204.66797 -213.21923,-204.66797zm-40.28003,296.76856c-8.38837,0 -15.22995,-6.56719 -15.22995,-14.61914s6.84158,-14.61914 15.22995,-14.61914s15.22995,6.56719 15.22995,14.61914s-6.84159,14.61914 -15.22995,14.61914zm76.14973,0c-8.38837,0 -15.22995,-6.56719 -15.22995,-14.61914s6.84158,-14.61914 15.22995,-14.61914s15.22995,6.56719 15.22995,14.61914s-6.84159,14.61914 -15.22995,14.61914zm59.53559,-132.30322l-39.56613,82.8418c-2.47883,5.19665 -7.88863,8.52783 -13.8418,8.52783l-87.61184,0c-7.14697,0 -13.33413,-4.77025 -14.873,-11.47069l-24.23307,-105.48243l-8.97138,0c-8.41217,0 -15.22995,-6.54435 -15.22995,-14.61914s6.81778,-14.61914 15.22995,-14.61914l21.2069,0c7.15094,0 13.33414,4.77025 14.873,11.47069l5.20356,22.64063l133.968,0c5.1877,0 10.01844,2.5355 12.81854,6.72328c2.80405,4.19158 3.18876,9.46056 1.02722,13.98716l0,0.00001zm0,0"/>
  <rect id="svg_4" height="242" width="246.99999" y="107.00044" x="123.49957" stroke-width="null" fill="#292841"/>
  <g id="svg_1" stroke="null">
   <g id="svg_3" stroke="null">
    <path d="m1022.10661,848.21702l0,54.44706l-23.32213,0l-62.47505,-54.44706l0,138.77963l87.91333,0l16.14294,0l76.94374,0l0,-55.80951l-95.20282,-82.97012l-0.00001,0zm-46.99212,47.88723l7.52705,6.55984l-7.52705,0l0,-6.55984zm-10.60582,24.78215l-8.73961,-7.61649l8.73961,0l0,7.61649zm0,-18.22196l-17.59341,0l0,-31.13518l17.59306,15.33197l0,15.80321l0.00035,0zm28.19888,42.79837l-17.59306,-15.33268l0,-16.85951l17.59306,0l0,32.19219zm68.20377,-49.35856l17.59306,15.33233l0,34.02553l-17.59306,-15.33233l0,-34.02553zm-28.19923,-24.57535l17.59306,15.33233l0,34.02553l-17.59306,-15.33233l0,-34.02553zm-11.80565,98.5089l-17.59306,-15.33233l0,-34.02553l17.59306,15.33233l0,34.02553zm10.60582,6.35268l0,-45.20334l-20.5587,-17.91688l14.46904,0l72.42722,63.12057l-66.33756,0l0,-0.00035zm75.19136,-6.35268l-4.65792,-4.05942l-12.93549,-11.27291l0,-34.02553l17.59306,15.33233l0,34.02553l0.00035,0z" id="svg_1" fill="#ffffff" stroke="null"/>
   </g>
  </g>
  <g id="svg_13" stroke="null">
   <g id="svg_12" stroke="null">
    <path d="m262.54406,119.7161l0,63.16895l-27.05811,0l-72.48294,-63.16895l0,161.01077l101.99618,0l18.72888,0l89.26937,0l0,-64.74965l-110.45338,-96.26112zm-54.5198,55.55829l8.73282,7.61066l-8.73282,0l0,-7.61066zm-12.30477,28.75201l-10.13961,-8.83658l10.13961,0l0,8.83658zm0,-21.14094l-20.4117,0l0,-36.12273l20.41129,17.788l0,18.33473l0.00041,0zm32.71607,49.65425l-20.41129,-17.78883l0,-19.56024l20.41129,0l0,37.34907zm79.12935,-57.26532l20.41129,17.78841l0,39.47608l-20.41129,-17.78841l0,-39.47608zm-32.71648,-28.51208l20.41129,17.78841l0,39.47608l-20.41129,-17.78841l0,-39.47608zm-13.6968,114.28906l-20.41129,-17.78841l0,-39.47608l20.41129,17.78841l0,39.47608zm12.30477,7.37031l0,-52.44447l-23.852,-20.78699l16.78684,0l84.02935,73.23187l-76.96419,0l0,-0.00041zm87.23628,-7.37031l-5.40408,-4.7097l-15.00763,-13.07872l0,-39.47608l20.41129,17.78841l0,39.47608l0.00041,0l0.00001,0.00001z" id="svg_11" fill="#ffffff" stroke="null"/>
   </g>
  </g>
 </g>
</svg>