<svg width="512" height="512" xmlns="http://www.w3.org/2000/svg">
 <g>
  <title>background</title>
  <rect x="-1" y="-1" width="514" height="514" id="canvas_background" fill="none"/>
 </g>

 <g>
  <title>Layer 1</title>
  <path d="m256,6.5c-117.56804,0 -213.21923,91.81505 -213.21923,204.66797c0,90.98893 62.46261,170.76223 152.74763,196.31527l46.84794,89.93436c2.57798,4.95299 7.85295,8.08241 13.62366,8.08241c5.76676,0 11.04171,-3.12941 13.61969,-8.08241l46.84795,-89.93436c90.28898,-25.54924 152.75159,-105.32634 152.75159,-196.31527c0,-112.85291 -95.65119,-204.66797 -213.21923,-204.66797zm-40.28003,296.76856c-8.38837,0 -15.22995,-6.56719 -15.22995,-14.61914s6.84158,-14.61914 15.22995,-14.61914s15.22995,6.56719 15.22995,14.61914s-6.84159,14.61914 -15.22995,14.61914zm76.14973,0c-8.38837,0 -15.22995,-6.56719 -15.22995,-14.61914s6.84158,-14.61914 15.22995,-14.61914s15.22995,6.56719 15.22995,14.61914s-6.84159,14.61914 -15.22995,14.61914zm59.53559,-132.30322l-39.56613,82.8418c-2.47883,5.19665 -7.88863,8.52783 -13.8418,8.52783l-87.61184,0c-7.14697,0 -13.33413,-4.77025 -14.873,-11.47069l-24.23307,-105.48243l-8.97138,0c-8.41217,0 -15.22995,-6.54435 -15.22995,-14.61914s6.81778,-14.61914 15.22995,-14.61914l21.2069,0c7.15094,0 13.33414,4.77025 14.873,11.47069l5.20356,22.64063l133.968,0c5.1877,0 10.01844,2.5355 12.81854,6.72328c2.80405,4.19158 3.18876,9.46056 1.02722,13.98716l0,0.00001zm0,0" id="svg_2" stroke="null"/>
  <rect fill="null" stroke-width="null" stroke-opacity="null" fill-opacity="null" x="143.50001" y="83" width="246.99999" height="242" id="svg_4" stroke="null"/>
  <g stroke="null" id="svg_1">
   <path stroke="null" fill="#ffffff" id="svg_1" d="m379.67158,255.79841l-58.33989,-136.97474c-0.7463,-1.66217 -1.9586,-3.10514 -3.63592,-4.32844c-1.68027,-1.22606 -3.45413,-1.83771 -5.31864,-1.83771l-47.42674,0c1.21132,0 2.28397,0.41451 3.21647,1.2449c0.93201,0.83269 1.44506,1.81474 1.53963,2.95165l2.09923,25.19263c0.09359,1.22468 -0.27833,2.23062 -1.11479,3.01644c-0.84185,0.7872 -1.86696,1.18011 -3.08073,1.18011l-23.22384,0c-1.2123,0 -2.23693,-0.39291 -3.07681,-1.18011c-0.8394,-0.78536 -1.2123,-1.79176 -1.11773,-3.01644l2.09874,-25.19263c0.09212,-1.13691 0.60419,-2.11895 1.53865,-2.95165c0.9325,-0.82902 2.00417,-1.2449 3.21794,-1.2449l-47.42821,0c-1.865,0 -3.63739,0.61165 -5.31668,1.83771c-1.67782,1.22193 -2.88914,2.66627 -3.63641,4.32844l-58.34087,136.97474c-2.42509,5.42261 -3.63739,10.49551 -3.63739,15.21962c0,6.38536 2.1448,9.57735 6.43588,9.57735l98.49135,0c-1.2123,0 -2.23693,-0.41497 -3.0773,-1.24536c-0.8394,-0.83315 -1.2123,-1.81474 -1.11773,-2.95349l2.79701,-33.58344c0.0931,-1.13875 0.60615,-2.12171 1.53865,-2.95349c0.93201,-0.83223 2.00564,-1.24398 3.21794,-1.24398l38.05174,0c1.21426,0 2.28397,0.41175 3.21941,1.24398c0.9325,0.83177 1.44555,1.81474 1.53816,2.95349l2.80044,33.58344c0.09555,1.13875 -0.28176,2.11987 -1.11822,2.95349c-0.83842,0.8304 -1.865,1.24536 -3.07877,1.24536l98.48988,0c4.2896,0 6.43637,-3.19199 6.43637,-9.57735c0,-4.72227 -1.21426,-9.79563 -3.64082,-15.21962zm-102.54526,-46.05315c0.09065,1.05052 -0.28176,1.92457 -1.12018,2.62307c-0.83695,0.70126 -1.81943,1.05052 -2.93765,1.05052l-34.137,0c-1.11969,0 -2.1007,-0.34925 -2.93814,-1.05052c-0.84038,-0.70126 -1.21279,-1.57577 -1.12018,-2.62307l0,-0.52526l3.35857,-41.98205c0.0931,-1.13737 0.60615,-2.12079 1.53865,-2.95211c0.9325,-0.83131 2.00564,-1.24628 3.21794,-1.24628l26.01988,0c1.21426,0 2.2874,0.41359 3.21941,1.24628c0.93201,0.83131 1.44555,1.81474 1.53963,2.95211l3.35759,41.98205l0,0.52526l0.00147,0z"/>
  </g>
 </g>
</svg>