<svg id="Capa_1" enable-background="new 0 0 502.29 502.29" height="512" viewBox="0 0 502.29 502.29" width="512" xmlns="http://www.w3.org/2000/svg"><g><path d="m266.14 393.71v101.73h56.52c-10.893-19.628-45.094-81.169-56.52-101.73z"/><path d="m324.57 192.27-56.04-95.59 43.76-74.65c-6.451-3.784-19.431-11.397-25.88-15.18-1.549 2.642-32.636 55.667-35.27 60.16-2.766-4.719-33.594-57.322-35.26-60.16-6.452 3.786-19.437 11.399-25.89 15.18l43.76 74.65-56.03 95.59z"/><path d="m342.15 222.27c-45.137 0-136.877 0-182.02 0l-160.13 273.17h145.31c9.58-17.262 94.153-169.489 105.83-190.51 12.152 21.876 95.85 172.529 105.83 190.51h145.32z"/><path d="m179.62 495.44h56.52c0-20.305 0-80.518 0-101.73-6.128 11.031-56.52 101.73-56.52 101.73z"/></g></svg>