<?xml version="1.0" encoding="iso-8859-1"?>
<!-- Generator: Adobe Illustrator 19.0.0, SVG Export Plug-In . SVG Version: 6.00 Build 0)  -->
<svg version="1.1" id="Capa_1" xmlns="http://www.w3.org/2000/svg" xmlns:xlink="http://www.w3.org/1999/xlink" x="0px" y="0px"
	 viewBox="0 0 512 512" style="enable-background:new 0 0 512 512;" xml:space="preserve">
<g>
	<g>
		<path d="M242.697,59.715v154.016h-65.972L0,59.715v392.57h248.683h45.664H512v-157.87L242.697,59.715z M109.769,195.175
			l21.292,18.556h-21.292V195.175z M79.768,265.277l-24.722-21.545h24.722V265.277z M79.768,213.732H30.001v-88.073l49.766,43.37
			V213.732z M159.535,334.797l-49.766-43.372v-47.691h49.766V334.797z M352.465,195.175l49.766,43.371v96.249l-49.766-43.371
			V195.175z M272.697,125.658l49.766,43.371v96.249l-49.766-43.371V125.658z M239.302,404.313l-49.766-43.371v-96.249l49.766,43.371
			V404.313z M269.303,422.283V294.415l-58.155-50.682h40.929l204.877,178.551H269.303z M481.999,404.313l-13.176-11.483
			l-36.591-31.888v-96.249l49.766,43.371V404.313z"/>
	</g>
</g>
<g>
</g>
<g>
</g>
<g>
</g>
<g>
</g>
<g>
</g>
<g>
</g>
<g>
</g>
<g>
</g>
<g>
</g>
<g>
</g>
<g>
</g>
<g>
</g>
<g>
</g>
<g>
</g>
<g>
</g>
</svg>
