<svg width="400" height="300" xmlns="http://www.w3.org/2000/svg" xmlns:xlink="http://www.w3.org/1999/xlink">
 <defs>
  <linearGradient y2="0.24118" x2="0.54802" y1="1.35165" x1="0.04123" id="linear-gradient-2">
   <stop stop-opacity="0" stop-color="#fff" offset="0.01"/>
   <stop stop-color="#006d9d" offset="1"/>
  </linearGradient>
  <linearGradient xlink:href="#linear-gradient-2" gradientTransform="matrix(1, 0, 0, 1, 0, 0)" y2="204.78" x2="248.3" y1="231.18" x1="217.82" id="linear-gradient-3"/>
 </defs>
 <title>91-100</title>
 <g>
  <title>background</title>
  <rect fill="none" id="canvas_background" height="602" width="802" y="-1" x="-1"/>
 </g>
 <g>
  <title>Layer 1</title>
  <ellipse id="svg_1" fill="#292841" transform="matrix(0.04,-1,1,0.04,-15.88,400.68) " ry="128.21" rx="61.27" cy="208.58" cx="200"/>
  <ellipse id="svg_2" fill="#e6e6e6" transform="rotate(-87.19000244140625 193.80000305175784,583.3400268554688) " ry="128.21" rx="61.27" cy="583.34" cx="193.8"/>
  <ellipse id="svg_4" fill="#b0c7f4" ry="49.67" rx="103.93" cy="191.11" cx="199.6"/>
  <ellipse id="svg_5" fill="#bed3ff" ry="49.67" rx="103.93" cy="183.11" cx="199.6"/>
  <g stroke="null" id="svg_50">
   <path stroke="null" id="svg_46" fill="#c92855" d="m208.04575,64.14802l0.00102,-0.00306l-0.10726,-0.06231c-0.01634,-0.0092 -0.03167,-0.01941 -0.04801,-0.02758l-18.61271,-10.73696c-5.85216,-3.54767 -13.50726,-3.39955 -21.86822,1.27585c-18.84663,10.53674 -34.20485,39.66986 -34.20485,64.71902c0,8.47537 1.75902,15.3858 4.81534,20.38807l20.16334,31.40493c0.5843,0.90913 1.28096,1.57106 2.05628,2.00928l0,0.00205l18.70158,10.78497l0,-0.00102c4.56711,3.00831 12.21302,-2.35455 15.74638,-11.9362l20.16335,-54.68792c3.14621,-8.78182 4.91851,-17.99981 4.81125,-26.6948c-0.1614,-13.09049 -4.63964,-22.35343 -11.61749,-26.43432z"/>
   <path stroke="null" id="svg_47" fill="#e7366a" d="m214.85199,117.27714c3.14621,-8.78181 4.91749,-17.99981 4.81125,-26.6948c-0.29521,-24.01541 -15.1151,-35.16506 -33.25588,-25.02261c-18.84561,10.53675 -34.20383,39.66986 -34.20383,64.71903c0,8.47536 1.75902,15.3858 4.81534,20.38807l20.16334,31.40492c4.04104,6.29447 13.46436,0.85397 17.50643,-10.1067l20.16334,-54.68792zm0,0"/>
   <path stroke="null" id="svg_48" fill="#d1d1d1" d="m204.19879,90.67121l0.00204,-0.00306l-6.96049,-3.97975c-3.03895,-1.72122 -6.98704,-1.54757 -11.30491,0.94591c-9.59697,5.5406 -17.3767,20.40646 -17.3767,33.20174c0,6.92984 2.28407,11.82588 5.90119,13.9843l6.85323,3.93072l0.00306,-0.00715c3.04611,1.75085 7.01258,1.58945 11.35395,-0.9173c9.59697,-5.5406 17.3767,-20.40646 17.3767,-33.20276c0,-6.89613 -2.2616,-11.77889 -5.84807,-13.95264zm0,0"/>
   <path stroke="null" id="svg_49" fill="#fff" d="m210.04788,104.62385c0,12.7963 -7.78075,27.66216 -17.37772,33.20276s-17.3767,-0.34118 -17.3767,-13.13748c0,-12.7963 7.77973,-27.66114 17.3767,-33.20174s17.37772,0.34118 17.37772,13.13646zm0,0"/>
  </g>
  <path id="svg_22" fill="url(#linear-gradient-3)" opacity="0.48" d="m232.6,230c13.63,-9.79 33.83,-25.23 35.77,-26.46l-6.37,-2.13l-12,-5.41l-40.56,26.31a31.27,31.27 0 0 0 23.16,7.69z"/>
  <path id="svg_23" fill="#292841" d="m216.86,90.07l-2,-6.82a6.5,6.5 0 0 1 2.95,-7.42l0,0a6.5,6.5 0 0 1 9.39,3.38l2.4,6.6a6.5,6.5 0 0 1 -3,7.93l-0.41,0.22a6.5,6.5 0 0 1 -9.33,-3.89z"/>
  <path id="svg_24" fill="#ed988c" d="m266,184.65c0.45,1.07 2.47,16 2.34,18.88s-4.54,3.2 -5.89,3.08s-4,-1.34 -5.69,-1.4s-11,-1.82 -10.72,-4.28s1.88,-4.84 4,-5s7.77,0.24 7.77,0.24l-0.57,-13.49"/>
  <path id="svg_25" fill="#292841" d="m267.83,199.47a20.7,20.7 0 0 1 -13.75,-0.17a6.29,6.29 0 0 1 -3.74,-3.41l-0.22,0c-2.1,0.11 -3.72,2.48 -4,4.93s9,4.29 10.69,4.35s4.32,1.32 5.67,1.44s5.76,-0.13 5.91,-3a38.31,38.31 0 0 0 -0.24,-4.24l-0.32,0.1z"/>
  <path id="svg_26" fill="#ed988c" d="m226.44,82.87s-2.08,-3.07 -2.08,-4.56s1.82,0.47 1.82,0.47l-0.24,-3.78s1.41,2.2 2.11,3.22s3,5.9 3.38,6.76s4.09,3.23 4.09,3.23s-1.06,3.46 -2.18,3.7s-6.64,-4.74 -6.64,-4.74l-0.26,-4.3z"/>
  <path id="svg_27" fill="#292841" d="m233.34,84.15s-4.1,3.64 -3.4,7.78c0,0 5.17,10.27 10.76,12s8.77,-9.31 7.24,-10.92s-14.6,-8.86 -14.6,-8.86z"/>
  <path id="svg_28" fill="#ed988c" d="m220.38,94.8s-1.91,-1.76 -1.58,-2.3s1.2,-5.5 0.77,-6.5c-0.72,-1.76 -2.55,2.15 -2.55,2.15l-0.52,-6.88s-2,2.18 -1.91,3.41s-0.1,9.46 0,10.07s1.82,5 1.82,5"/>
  <path id="svg_29" fill="#292841" d="m264.1,114.36a36.63,36.63 0 0 1 4.27,16.37c0.14,7 0.53,63.52 0.53,63.52s-5.95,3.52 -17.24,0.24c-1.64,-0.48 -3.72,-48.65 -3.72,-48.65l3.87,-24.84"/>
  <path id="svg_30" fill="#ed988c" d="m243,201.73c0.4,1.09 1.65,16.06 1.38,19s-4.69,3 -6,2.78s-3.93,-1.55 -5.61,-1.69s-10.88,-2.37 -10.49,-4.82s2.12,-4.74 4.22,-4.76s7.75,0.63 7.75,0.63l0.12,-13.5"/>
  <path id="svg_31" fill="#292841" d="m248.11,184.72a6.47,6.47 0 0 1 0.26,-0.76a85,85 0 0 1 6,-21.23c0.71,-3.89 1.17,-6.44 1.22,-6.64c3.33,-13.37 0.84,-17 1.65,-37.2l-14.49,0.74s-8,26.4 -10.91,50.2c-0.7,5.71 -1.59,36.8 -1.59,36.8s7.16,4.94 15.83,2.15l0.29,-1.64c-1.85,-7.45 -0.23,-15.14 1.74,-22.42z"/>
  <path id="svg_32" fill="#292841" d="m241.87,105c-0.38,-5.59 -2.41,-8.53 -1.12,-13.95c4,-4.38 11.61,-9.67 12.42,-9.83l4.28,1a8.34,8.34 0 0 1 6.45,7.9c0.23,8.67 0.56,23.14 0.2,24.29s-8.85,8.44 -21.37,5.26c-0.35,-4.93 -0.52,-9.83 -0.86,-14.67z"/>
  <path id="svg_33" fill="#ed988c" d="m243.47,72s-1.77,13 3,14.09s10.05,-4.6 10.3,-7.26s-6.93,-11.57 -13.3,-6.83z"/>
  <path id="svg_34" fill="#bed3ff" d="m245,65.24c-0.51,0.19 -4.92,2.84 -4.63,4.64s1,5.77 2.31,5.13s1.27,-3 2.32,-1.24s1.92,3.14 3,2.69a2.54,2.54 0 0 1 2,0.09s0,9.37 1.12,8.76s5.66,-2.56 7.31,-5.4c1,-1.79 1.3,-5.12 1,-7.82a8.46,8.46 0 0 0 -1,-3.64c-1.35,-1.86 -9.88,-4.56 -13.43,-3.21z"/>
  <path id="svg_35" fill="#bed3ff" d="m258.42,68.46s5.2,6.72 4.75,15s-15.23,9.54 -15.23,9.54l2,-16.41"/>
  <path id="svg_36" fill="#292841" d="m215.77,99.57a7.85,7.85 0 0 1 4.61,-5c4.07,3.85 9,8 10.68,7.38c2.4,-1 7.18,-12.13 14,-12.7s6.61,8.85 6.61,8.85s-11.87,18.32 -18.31,18.64c-5.19,0.26 -14.61,-8.86 -18.31,-13.25a18.51,18.51 0 0 1 0.72,-3.92z"/>
  <path id="svg_37" fill="#292841" d="m241,216c-4.33,1 -9.06,1.64 -12.4,-2a6.33,6.33 0 0 1 -1.1,-1.7l-1,0c-2.1,0 -3.83,2.31 -4.22,4.76s8.82,4.67 10.49,4.82s4.26,1.51 5.61,1.69s5.76,0.12 6,-2.78a44.45,44.45 0 0 0 -0.09,-4.94a12.23,12.23 0 0 1 -3.29,0.15z"/>
 </g>
</svg>