<svg width="400.00000000000006" height="300" xmlns="http://www.w3.org/2000/svg">

 <g>
  <title>background</title>
  <rect fill="none" id="canvas_background" height="602" width="802" y="-1" x="-1"/>
 </g>
 <g>
  <title>Layer 1</title>
  <path id="svg_2" fill="#ffd200" d="m228.33,96.35s0,-10.25 9,-10.69s41.87,-2.63 47,14.2s1.9,61.25 -19.55,69.42s-44.54,-5.1 -44.54,-5.1s16.76,-33.27 8.09,-67.83z"/>
  <path id="svg_4" fill="#e6e6e6" d="m235.715,94.28s-13.15,1.13 -20.47,7.94s-5.62,39.15 -46.62,37.28l0,6.5s50.21,3.74 58.21,-25l8.88,-26.72z"/>
  <path id="svg_5" fill="#f4a28c" d="m241.59,74.22a30.77,30.77 0 0 0 -0.57,8.16a2.48,2.48 0 0 0 2.79,2.13a5.47,5.47 0 0 0 4.73,-3.58l2,-4.1a4.43,4.43 0 0 0 -1.38,-4.92c-2.55,-2.32 -7.11,-0.66 -7.57,2.31z"/>
  <polygon id="svg_6" fill="#f4a28c" points="250.15 77.57 250.79 93.7 241.88 93.42 244.99 81.8 250.15 77.57"/>
  <path id="svg_7" fill="#24285b" d="m247.34,68.72c0.79,0 1.37,0.83 2,1.27a5,5 0 0 1 2,4.75l-0.69,6.26a3.33,3.33 0 0 1 -3.85,-1.8a4.11,4.11 0 0 1 0.53,-4.48a20.08,20.08 0 0 1 -4.55,-0.18a4.64,4.64 0 0 1 -1.46,-0.48s-2.1,-5.48 6.02,-5.34z"/>
  <path id="svg_8" fill="#f4a28c" d="m246.29,79s0.26,-1.88 1.66,-1.56s1,3 -0.92,3.05l-0.74,-1.49z"/>
  <path id="svg_9" fill="#f4a28c" d="m241.11,77.29l-1.58,1.71a0.79,0.79 0 0 0 0.34,1.29l1.83,0.57l-0.59,-3.57z"/>
  <path id="svg_10" opacity="0.31" fill="#ce8172" d="m244.2,84.31a5.89,5.89 0 0 0 3.07,-1.31s-0.48,2.91 -4,5.43l0.93,-4.12z"/>
  <path id="svg_11" fill="#0f2133" d="m250.79,93.7l-8.91,-0.28s-23.88,0.38 -25.38,17.79s8.71,31 5.31,44.59l32.42,4.14s53.14,-53.4 -3.44,-66.24z"/>
  <path id="svg_12" opacity="0.08" d="m246.22,112.14a43.07,43.07 0 0 0 0.74,13a29.36,29.36 0 0 1 -6.24,25.86l-5.63,6.52l19.14,2.45s14.59,-15.97 17.27,-23.58s-3.27,-16.19 -3.27,-16.19l-22.01,-8.06z"/>
  <polygon id="svg_13" fill="#e6e6e6" points="114.19 262.6 292.92 262.6 277.94 226.65 227.11 215.34 202.7 188.69 141.42 193.37 114.19 262.6"/>
  <path id="svg_14" fill="#0f2133" d="m243.23,157.28l0,0l-21.42,-2.73l-0.57,0a28,28 0 0 0 -25.64,17.32l-5.15,12.47l4.08,1.79l7.5,-9.49a22.2,22.2 0 0 1 19.07,-8.37l8.92,0.67a15.69,15.69 0 0 1 14.22,12.22c3.2,14.68 3,32.58 3,32.58l6,0l1,-55.05l-11.01,-1.41z"/>
  <polygon id="svg_15" fill="#c9c9c9" points="77.25 262.6 107.13 222.6 156.78 238.42 210.69 243.49 219.84 262.6 77.25 262.6"/>
  <path id="svg_17" fill="#e6e6e6" d="m250.155,107.405a13,13 0 0 1 18.81,-4.66c10.94,7.38 26.94,22.1 22.36,43c-6.81,31 -42.56,17.7 -42.56,17.7l0,-7.15s27.92,5.79 26.22,-14c-1.42,-16.44 -32.05,-20.45 -24.83,-34.89z"/>
  <path id="svg_18" fill="#f4a28c" d="m249.39,157.54s-8.09,-2.39 -7.51,2.89s7.51,2.36 7.51,2.36l0,-5.25z"/>
  <path id="svg_19" fill="#ffd200" d="m267,98a10.93,10.93 0 0 0 -9.3,-2.2c-4.23,0.89 -10.25,3.08 -11.9,8.43c-2.63,8.51 9.52,34.42 28.09,32c0,0 -6.21,-8.81 -12,-13.74s-12.76,-24.16 6.73,-20.93c0.05,-0.01 0.85,-1.47 -1.62,-3.56z"/>
  <path id="svg_20" opacity="0.08" d="m267,98a10.93,10.93 0 0 0 -9.3,-2.2c-4.23,0.89 -10.25,3.08 -11.9,8.43c-2.63,8.51 9.52,34.42 28.09,32c0,0 -6.21,-8.81 -12,-13.74s-12.76,-24.16 6.73,-20.93c0.05,-0.01 0.85,-1.47 -1.62,-3.56z"/>
  <path id="svg_21" fill="#f4a28c" d="m168,139.5s-8.43,-1.88 -8.17,3.23s8.17,3.27 8.17,3.27l0,-6.5z"/>
  <rect id="svg_22" fill="#0f2133" height="117.72" width="2.85" y="74.29" x="162.66"/>
  <path id="svg_23" fill="#0f2133" d="m162.66,77.29s-10.51,-4.93 -18.68,0s-20.98,9.71 -32.43,1.71s-28.55,0 -28.55,0l0,52.78s17.1,-10.32 28.85,-3.12s24,0.31 32.93,-4s17.92,0.77 17.92,0.77l-0.04,-48.14z"/>
  <polygon id="svg_24" fill="#0f2133" points="192.66 177.28 199.86 180.63 194.49 189.32 180.23 190.73 188.23 186.65 192.66 177.28"/>
  <polygon id="svg_25" fill="#0f2133" points="246.34 206.39 253.39 206.39 253.39 218.31 258.63 222.35 247.27 219.83 246.34 206.39"/>
  <path id="svg_26" fill="#0f2133" d="m240.91,74.31s6.69,2 10.46,1.78c0,0 2.1,-4.42 0.32,-7.75c-1.56,-2.93 -11.58,-6.23 -10.78,5.97z"/>
  <path id="svg_27" opacity="0.68" fill="#fff" d="m241,71.21s7,2.3 11.2,2.41a10.35,10.35 0 0 1 -0.79,2.47s-3.52,0.35 -10.46,-1.78a15.84,15.84 0 0 1 0.05,-3.1z"/>
  <path id="svg_28" fill="#ffd200" d="m235.77,94.14s-10.47,-0.81 -16.09,2.12s-15.69,28.25 0.84,41.12c0,0 -13.33,-36.55 15.25,-43.24z"/>
  <path id="svg_29" opacity="0.08" d="m235.77,94.14s-10.47,-0.81 -16.09,2.12s-15.69,28.25 0.84,41.12c0,0 -13.33,-36.55 15.25,-43.24z"/>
  <path id="svg_31" fill="#e6e6e6" d="m238.51,94.95s-1.34,-3.65 4.49,-4.46s13.73,-0.52 12,5.55a59.22,59.22 0 0 1 -16.49,-1.09z"/>
  <circle id="svg_32" fill="#e6e6e6" r="4.72" cy="180.9" cx="81.98"/>
  <circle id="svg_33" fill="#e6e6e6" r="4.72" cy="86.81" cx="328.11"/>
  <circle id="svg_34" fill="#e6e6e6" r="4.72" cy="86.79" cx="193.04"/>
  <circle id="svg_35" fill="#e6e6e6" r="3.07" cy="190.73" cx="289.77"/>
  <circle id="svg_36" fill="#e6e6e6" r="3.07" cy="126.68" cx="51.81"/>
  <circle id="svg_37" fill="#e6e6e6" r="3.07" cy="62.54" cx="121"/>
  <circle id="svg_38" fill="#e6e6e6" r="3.07" cy="47.24" cx="251.37"/>
  <circle id="svg_39" fill="#e6e6e6" r="3.07" cy="153.62" cx="341.98"/>
 </g>
</svg>